<?xml version="1.0" encoding="utf-8"?>
<!-- Generator: Adobe Illustrator 18.0.0, SVG Export Plug-In . SVG Version: 6.00 Build 0)  -->
<!DOCTYPE svg PUBLIC "-//W3C//DTD SVG 1.1//EN" "http://www.w3.org/Graphics/SVG/1.1/DTD/svg11.dtd">
<svg version="1.1" id="Layer_1" xmlns="http://www.w3.org/2000/svg" xmlns:xlink="http://www.w3.org/1999/xlink" x="0px" y="0px"
	 viewBox="0 0 2.5 7.4" enable-background="new 0 0 2.5 7.4" xml:space="preserve">
<g>
	<path d="M0.4,257c0-0.5,0.5-1,1-1l0,0c0.5,0,1,0.5,1,1l0,0c0,0.5-0.5,1-1,1l0,0C0.9,258,0.4,257.5,0.4,257z M0.4,249
		c0-0.5,0.5-1,1-1l0,0c0.5,0,1,0.5,1,1l0,0c0,0.5-0.5,1-1,1l0,0C0.9,250,0.4,249.5,0.4,249z M0.4,241c0-0.5,0.5-1,1-1l0,0
		c0.5,0,1,0.5,1,1l0,0c0,0.5-0.5,1-1,1l0,0C0.9,242,0.4,241.5,0.4,241z M0.4,233c0-0.5,0.5-1,1-1l0,0c0.5,0,1,0.5,1,1l0,0
		c0,0.5-0.5,1-1,1l0,0C0.9,234,0.4,233.5,0.4,233z M0.4,225c0-0.5,0.5-1,1-1l0,0c0.5,0,1,0.5,1,1l0,0c0,0.5-0.5,1-1,1l0,0
		C0.9,226,0.4,225.5,0.4,225z M0.4,217c0-0.5,0.5-1,1-1l0,0c0.5,0,1,0.5,1,1l0,0c0,0.5-0.5,1-1,1l0,0C0.9,218,0.4,217.5,0.4,217z
		 M0.4,209c0-0.5,0.5-1,1-1l0,0c0.5,0,1,0.5,1,1l0,0c0,0.5-0.5,1-1,1l0,0C0.9,210,0.4,209.5,0.4,209z M0.4,201c0-0.5,0.5-1,1-1l0,0
		c0.5,0,1,0.5,1,1l0,0c0,0.5-0.5,1-1,1l0,0C0.9,202,0.4,201.5,0.4,201z M0.4,193c0-0.5,0.5-1,1-1l0,0c0.5,0,1,0.5,1,1l0,0
		c0,0.5-0.5,1-1,1l0,0C0.9,194,0.4,193.5,0.4,193z M0.4,185c0-0.5,0.5-1,1-1l0,0c0.5,0,1,0.5,1,1l0,0c0,0.5-0.5,1-1,1l0,0
		C0.9,186,0.4,185.5,0.4,185z M0.4,177c0-0.5,0.5-1,1-1l0,0c0.5,0,1,0.5,1,1l0,0c0,0.5-0.5,1-1,1l0,0C0.9,178,0.4,177.5,0.4,177z
		 M0.4,169c0-0.5,0.5-1,1-1l0,0c0.5,0,1,0.5,1,1l0,0c0,0.5-0.5,1-1,1l0,0C0.9,170,0.4,169.5,0.4,169z M0.4,161c0-0.5,0.5-1,1-1l0,0
		c0.5,0,1,0.5,1,1l0,0c0,0.5-0.5,1-1,1l0,0C0.9,162,0.4,161.5,0.4,161z M0.4,153c0-0.5,0.5-1,1-1l0,0c0.5,0,1,0.5,1,1l0,0
		c0,0.5-0.5,1-1,1l0,0C0.9,154,0.4,153.5,0.4,153z M0.4,145c0-0.5,0.5-1,1-1l0,0c0.5,0,1,0.5,1,1l0,0c0,0.5-0.5,1-1,1l0,0
		C0.9,146,0.4,145.5,0.4,145z M0.4,137c0-0.5,0.5-1,1-1l0,0c0.5,0,1,0.5,1,1l0,0c0,0.5-0.5,1-1,1l0,0C0.9,138,0.4,137.5,0.4,137z
		 M0.4,129c0-0.5,0.5-1,1-1l0,0c0.5,0,1,0.5,1,1l0,0c0,0.5-0.5,1-1,1l0,0C0.9,130,0.4,129.5,0.4,129z M0.4,121c0-0.5,0.5-1,1-1l0,0
		c0.5,0,1,0.5,1,1l0,0c0,0.5-0.5,1-1,1l0,0C0.9,122,0.4,121.5,0.4,121z M0.4,113c0-0.5,0.5-1,1-1l0,0c0.5,0,1,0.5,1,1l0,0
		c0,0.5-0.5,1-1,1l0,0C0.9,114,0.4,113.5,0.4,113z M0.4,105c0-0.5,0.5-1,1-1l0,0c0.5,0,1,0.5,1,1l0,0c0,0.5-0.5,1-1,1l0,0
		C0.9,106,0.4,105.5,0.4,105z M0.4,97c0-0.5,0.5-1,1-1l0,0c0.5,0,1,0.5,1,1l0,0c0,0.5-0.5,1-1,1l0,0C0.9,98,0.4,97.5,0.4,97z
		 M0.4,89c0-0.5,0.5-1,1-1l0,0c0.5,0,1,0.5,1,1l0,0c0,0.5-0.5,1-1,1l0,0C0.9,90,0.4,89.5,0.4,89z M0.4,81c0-0.6,0.5-1,1-1l0,0
		c0.5,0,1,0.4,1,1l0,0c0,0.5-0.5,1-1,1l0,0C0.9,82,0.4,81.5,0.4,81z M0.4,73c0-0.6,0.5-1,1-1l0,0c0.5,0,1,0.4,1,1l0,0
		c0,0.5-0.5,1-1,1l0,0C0.9,74,0.4,73.5,0.4,73z M0.4,65c0-0.6,0.5-1,1-1l0,0c0.5,0,1,0.4,1,1l0,0c0,0.5-0.5,1-1,1l0,0
		C0.9,66,0.4,65.5,0.4,65z M0.4,57c0-0.6,0.5-1,1-1l0,0c0.5,0,1,0.4,1,1l0,0c0,0.5-0.5,1-1,1l0,0C0.9,58,0.4,57.5,0.4,57z M0.4,49
		c0-0.5,0.5-1,1-1l0,0c0.5,0,1,0.5,1,1l0,0c0,0.5-0.5,1-1,1l0,0C0.9,50,0.4,49.5,0.4,49z M0.4,41c0-0.5,0.5-1,1-1l0,0
		c0.5,0,1,0.5,1,1l0,0c0,0.5-0.5,1-1,1l0,0C0.9,42,0.4,41.5,0.4,41z M0.4,33c0-0.5,0.5-1,1-1l0,0c0.5,0,1,0.5,1,1l0,0
		c0,0.5-0.5,1-1,1l0,0C0.9,34,0.4,33.5,0.4,33z M0.4,25c0-0.5,0.5-1,1-1l0,0c0.5,0,1,0.5,1,1l0,0c0,0.5-0.5,1-1,1l0,0
		C0.9,26,0.4,25.5,0.4,25z M0.4,17c0-0.5,0.5-1,1-1l0,0c0.5,0,1,0.5,1,1l0,0c0,0.5-0.5,1-1,1l0,0C0.9,18,0.4,17.5,0.4,17z M0.4,9
		c0-0.5,0.5-1,1-1l0,0c0.5,0,1,0.5,1,1l0,0c0,0.5-0.5,1-1,1l0,0C0.9,10,0.4,9.5,0.4,9z M0.4,1c0-0.5,0.5-1,1-1l0,0c0.5,0,1,0.5,1,1
		l0,0c0,0.5-0.5,1-1,1l0,0C0.9,2,0.4,1.5,0.4,1z"/>
</g>
</svg>
