<?xml version="1.0" encoding="utf-8"?>
<!-- Generator: Adobe Illustrator 17.0.2, SVG Export Plug-In . SVG Version: 6.00 Build 0)  -->
<!DOCTYPE svg PUBLIC "-//W3C//DTD SVG 1.1//EN" "http://www.w3.org/Graphics/SVG/1.1/DTD/svg11.dtd">
<svg version="1.1" id="Layer_1" xmlns="http://www.w3.org/2000/svg" xmlns:xlink="http://www.w3.org/1999/xlink" x="0px" y="0px"
	 width="59.438px" height="58.284px" viewBox="0 0 59.438 58.284" enable-background="new 0 0 59.438 58.284" xml:space="preserve">
<g>
	<g>
		<circle fill="#FFFFFF" cx="19.048" cy="36.947" r="2.307"/>
		<circle fill="#FFFFFF" cx="40.391" cy="36.947" r="2.307"/>
		<path fill="#FFFFFF" d="M19.191,17.046h21.056c0.875,0,1.586-0.712,1.586-1.588s-0.711-1.587-1.586-1.587H19.191
			c-0.876,0-1.585,0.711-1.585,1.587S18.314,17.046,19.191,17.046z"/>
		<path fill="#FFFFFF" d="M29.718,0C13.305,0,0,13.309,0,29.721s13.305,28.563,29.718,28.563c16.414,0,29.72-12.151,29.72-28.563
			S46.131,0,29.718,0z M46.411,42.717h-3.234v3.13c0,0.731-0.595,1.324-1.326,1.324h-3.087c-0.733,0-1.326-0.593-1.328-1.324v-3.13
			H21.997v3.13c0,0.731-0.594,1.324-1.327,1.324h-3.082c-0.732,0-1.325-0.593-1.327-1.324v-3.13h-3.233V19.71
			c0.011-4.709,3.158-8.587,7.921-8.596h17.541c4.763,0.009,7.915,3.887,7.922,8.594V42.717z"/>
		<path fill="#FFFFFF" d="M41.561,18.857H17.877c-1.383,0-2.481,1.039-2.481,2.322v7.899h28.645V21.18
			C44.041,19.896,42.943,18.857,41.561,18.857z"/>
	</g>
</g>
</svg>
