<?xml version="1.0" encoding="utf-8"?>
<!-- Generator: Adobe Illustrator 17.0.0, SVG Export Plug-In . SVG Version: 6.00 Build 0)  -->
<!DOCTYPE svg PUBLIC "-//W3C//DTD SVG 1.1//EN" "http://www.w3.org/Graphics/SVG/1.1/DTD/svg11.dtd">
<svg version="1.1" id="Layer_1" xmlns="http://www.w3.org/2000/svg" xmlns:xlink="http://www.w3.org/1999/xlink" x="0px" y="0px"
	 width="248.5px" height="71px" viewBox="0 0 248.5 71" style="enable-background:new 0 0 248.5 71;" xml:space="preserve">
<style type="text/css">
	.st0{fill:#FFFFFF;}
	.st1{opacity:0.5;fill:#0DB0DF;}
	.st2{fill:#D3D3D3;}
	.st3{fill:#0DB0DF;}
	.st4{fill:#A0A0A0;}
	.st5{fill:#B9B9B9;}
	.st6{fill:#C61C5C;}
	.st7{clip-path:url(#SVGID_8_);}
	.st8{opacity:0.3;fill:#FFFFFF;}
	.st9{opacity:0.4;fill:#FFFFFF;}
	.st10{fill:#3D3D3D;}
	.st11{fill:#FF00FF;}
	.st12{fill:#3B5985;}
	.st13{fill:#EAA613;}
	.st14{opacity:0.4;}
	.st15{opacity:0.6;}
	.st16{opacity:0.3;}
	.st17{fill:#D3D4D5;}
	.st18{fill:none;stroke:#EAA613;stroke-miterlimit:10;}
	.st19{fill:#017280;}
	.st20{clip-path:url(#SVGID_34_);}
	.st21{fill:#333333;}
	.st22{fill:#D6D8DA;}
	.st23{fill:#141823;}
	.st24{fill:#808490;}
	.st25{clip-path:url(#SVGID_36_);}
	.st26{fill:none;stroke:#D6D8DA;stroke-miterlimit:10;}
	.st27{fill:#6D80AC;}
	.st28{opacity:0.6;fill:#0DBCEB;}
	.st29{fill:none;stroke:#DFDFDF;stroke-width:2;stroke-linecap:round;stroke-miterlimit:10;}
	.st30{clip-path:url(#SVGID_48_);}
	.st31{fill:none;stroke:#FFFFFF;stroke-width:16;stroke-miterlimit:10;}
	.st32{fill:#E9A513;}
	.st33{opacity:0.7;fill:#0DBCEB;}
	.st34{fill:none;stroke:#FFFFFF;stroke-width:14;stroke-miterlimit:10;}
	.st35{fill:none;stroke:#FFFFFF;stroke-width:13;stroke-miterlimit:10;}
	.st36{clip-path:url(#SVGID_66_);}
	.st37{fill:#404040;stroke:#000000;stroke-width:0.5;stroke-miterlimit:10;}
	.st38{fill:#808080;stroke:#000000;stroke-width:0.5;stroke-miterlimit:10;}
	.st39{fill:#DFDFDF;stroke:#000000;stroke-width:0.5;stroke-miterlimit:10;}
	.st40{stroke:#000000;stroke-width:0.5;stroke-miterlimit:10;}
	.st41{fill:#606060;stroke:#000000;stroke-width:0.5;stroke-miterlimit:10;}
	.st42{fill:#BFBFBF;stroke:#000000;stroke-width:0.5;stroke-miterlimit:10;}
	.st43{fill:#202020;stroke:#000000;stroke-width:0.5;stroke-miterlimit:10;}
	.st44{fill:#9F9F9F;stroke:#000000;stroke-width:0.5;stroke-miterlimit:10;}
	.st45{fill:#404040;stroke:#000000;stroke-miterlimit:10;}
	.st46{stroke:#000000;stroke-miterlimit:10;}
	.st47{fill:#606060;stroke:#000000;stroke-miterlimit:10;}
	.st48{fill:#BFBFBF;stroke:#000000;stroke-miterlimit:10;}
	.st49{opacity:0.4;fill:#0DB0DF;}
	.st50{opacity:0.8;fill:#0DB0DF;}
	.st51{opacity:0.3;fill:#EAA613;}
	.st52{opacity:0.4;fill:#EAA613;}
	.st53{opacity:0.5;fill:#EAA613;}
	.st54{opacity:0.6;fill:#EAA613;}
	.st55{opacity:0.7;fill:#EAA613;}
	.st56{opacity:0.8;fill:#EAA613;}
	.st57{opacity:0.9;fill:#EAA613;}
	.st58{fill:#FFFFFF;stroke:#EAA613;stroke-width:2;stroke-miterlimit:10;}
	.st59{clip-path:url(#SVGID_76_);fill:#0DB0DF;}
	.st60{fill:none;stroke:#0DB0DF;stroke-width:2;stroke-linecap:round;stroke-linejoin:round;stroke-miterlimit:10;}
	.st61{clip-path:url(#SVGID_78_);fill:#0DB0DF;}
	.st62{fill:#FBB713;}
	.st63{fill:none;stroke:#0DB0DF;stroke-miterlimit:10;}
	.st64{fill:#4D4D4D;}
	.st65{fill:#666666;}
	.st66{opacity:0.5;}
	.st67{clip-path:url(#SVGID_98_);}
	.st68{fill:none;stroke:#FFFFFF;}
	.st69{clip-path:url(#SVGID_106_);}
	.st70{clip-path:url(#SVGID_110_);fill:#0DB0DF;}
	.st71{clip-path:url(#SVGID_112_);fill:#0DB0DF;}
	.st72{opacity:0.5;fill:#C61C5C;}
	.st73{fill:none;stroke:#0DB0DF;stroke-width:5;stroke-miterlimit:10;}
	.st74{fill:none;stroke:#83D8ED;stroke-width:5;stroke-miterlimit:10;}
</style>
<g>
	<defs>
		<rect id="SVGID_41_" x="-703" y="109" width="1278" height="679"/>
	</defs>
	<clipPath id="SVGID_2_">
		<use xlink:href="#SVGID_41_"  style="overflow:visible;"/>
	</clipPath>
	<g style="clip-path:url(#SVGID_2_);">
		
			<image style="overflow:visible;" width="5184" height="3456" xlink:href="../../../../../Dropbox/affiliate photos/Colorado/14505134944_4851c131a5_o.jpg"  transform="matrix(0.2632 0 0 0.2632 -788.5542 -6.5136)">
		</image>
	</g>
</g>
<g>
	<g>
		<polygon class="st0" points="67.1,71.2 67.1,-0.2 68.5,-0.2 68.5,71.2 67.1,71.2 		"/>
	</g>
	<g>
		<circle class="st62" cx="20.2" cy="43.3" r="2.3"/>
		<circle class="st62" cx="41.6" cy="43.3" r="2.3"/>
		<path class="st62" d="M20.3,23.3h21.1c0.9,0,1.6-0.7,1.6-1.6s-0.7-1.6-1.6-1.6H20.3c-0.9,0-1.6,0.7-1.6,1.6S19.4,23.3,20.3,23.3z"
			/>
		<path class="st62" d="M30.9,6.2C14.4,6.2,1.1,19.6,1.1,36s13.3,28.6,29.8,28.6c16.5,0,29.8-12.2,29.8-28.6S47.3,6.2,30.9,6.2z
			 M47.6,49h-3.2v3.1c0,0.7-0.6,1.3-1.3,1.3h-3.1c-0.7,0-1.3-0.6-1.3-1.3V49H23.1v3.1c0,0.7-0.6,1.3-1.3,1.3h-3.1
			c-0.7,0-1.3-0.6-1.3-1.3V49h-3.2V26c0-4.7,3.2-8.6,7.9-8.6h17.6c4.8,0,7.9,3.9,7.9,8.6V49z"/>
		<path class="st62" d="M42.8,25.1H19c-1.4,0-2.5,1-2.5,2.3v7.9h28.7v-7.9C45.2,26.2,44.1,25.1,42.8,25.1z"/>
	</g>
	<g>
		<path class="st0" d="M84.5,15.9c0.6,0,1.2,0.1,1.8,0.2c0.6,0.1,1.1,0.3,1.5,0.6c0.4,0.3,0.8,0.7,1,1.1c0.3,0.5,0.4,1,0.4,1.7
			c0,0.4-0.1,0.8-0.2,1.1c-0.1,0.4-0.3,0.7-0.5,1c-0.2,0.3-0.5,0.5-0.8,0.8c-0.3,0.2-0.7,0.4-1,0.4v0c1,0.1,1.7,0.5,2.3,1.2
			c0.6,0.7,0.8,1.5,0.8,2.4c0,0.2,0,0.5-0.1,0.8c0,0.3-0.1,0.6-0.2,0.9c-0.1,0.3-0.3,0.6-0.5,0.9c-0.2,0.3-0.5,0.6-0.9,0.8
			c-0.4,0.2-0.9,0.4-1.5,0.6c-0.6,0.1-1.3,0.2-2.1,0.2h-6.3V15.9H84.5z M84.5,22.4c0.6,0,1.1-0.1,1.5-0.2c0.4-0.1,0.8-0.3,1-0.5
			c0.3-0.2,0.5-0.5,0.6-0.8c0.1-0.3,0.2-0.6,0.2-1c0-1.9-1.1-2.8-3.3-2.8h-4.9v5.3H84.5z M84.5,29.5c0.5,0,1,0,1.5-0.1
			c0.5-0.1,0.9-0.3,1.2-0.5c0.4-0.2,0.6-0.5,0.8-0.9c0.2-0.4,0.3-0.9,0.3-1.5c0-1-0.3-1.7-1-2.1s-1.6-0.7-2.9-0.7h-4.9v5.9H84.5z"/>
		<path class="st0" d="M93.4,15.9v9.2c0,0.9,0.1,1.6,0.3,2.2c0.2,0.6,0.5,1.1,0.9,1.5c0.4,0.4,0.8,0.7,1.4,0.8
			c0.5,0.2,1.1,0.3,1.8,0.3c0.7,0,1.3-0.1,1.8-0.3c0.5-0.2,1-0.4,1.4-0.8c0.4-0.4,0.7-0.9,0.9-1.5c0.2-0.6,0.3-1.3,0.3-2.2v-9.2h1.4
			v9.5c0,0.8-0.1,1.5-0.3,2.2c-0.2,0.7-0.6,1.3-1,1.8c-0.5,0.5-1.1,0.9-1.8,1.2S98.7,31,97.7,31c-1,0-1.9-0.1-2.6-0.4
			s-1.3-0.7-1.8-1.2c-0.5-0.5-0.8-1.1-1-1.8c-0.2-0.7-0.3-1.4-0.3-2.2v-9.5H93.4z"/>
		<path class="st0" d="M107.3,27.7c0.2,0.5,0.6,0.9,1,1.2c0.4,0.3,1,0.5,1.5,0.7c0.6,0.1,1.2,0.2,1.9,0.2c0.4,0,0.8-0.1,1.3-0.2
			c0.5-0.1,0.9-0.3,1.3-0.5c0.4-0.2,0.7-0.6,1-0.9c0.3-0.4,0.4-0.8,0.4-1.4c0-0.4-0.1-0.8-0.3-1.1c-0.2-0.3-0.4-0.6-0.7-0.8
			c-0.3-0.2-0.6-0.4-1-0.5c-0.4-0.1-0.7-0.2-1.1-0.3l-3.3-0.8c-0.4-0.1-0.8-0.2-1.3-0.4c-0.4-0.2-0.8-0.4-1.1-0.7
			c-0.3-0.3-0.5-0.6-0.7-1c-0.2-0.4-0.3-0.9-0.3-1.5c0-0.4,0.1-0.8,0.2-1.3c0.1-0.5,0.4-0.9,0.8-1.4c0.4-0.4,0.9-0.8,1.6-1.1
			c0.7-0.3,1.5-0.4,2.6-0.4c0.7,0,1.4,0.1,2.1,0.3c0.7,0.2,1.2,0.5,1.7,0.9c0.5,0.4,0.9,0.9,1.2,1.4c0.3,0.6,0.4,1.2,0.4,2h-1.4
			c0-0.6-0.2-1.1-0.4-1.5c-0.2-0.4-0.5-0.8-0.9-1.1c-0.4-0.3-0.8-0.5-1.3-0.6c-0.5-0.1-1-0.2-1.5-0.2c-0.5,0-1,0.1-1.4,0.2
			c-0.4,0.1-0.8,0.3-1.2,0.5c-0.3,0.2-0.6,0.5-0.8,0.9s-0.3,0.8-0.3,1.4c0,0.3,0.1,0.6,0.2,0.9c0.1,0.3,0.3,0.5,0.5,0.7
			c0.2,0.2,0.4,0.3,0.7,0.4c0.3,0.1,0.6,0.2,0.9,0.3l3.6,0.9c0.5,0.1,1,0.3,1.5,0.5c0.5,0.2,0.9,0.4,1.2,0.7
			c0.4,0.3,0.6,0.7,0.8,1.1c0.2,0.4,0.3,0.9,0.3,1.6c0,0.2,0,0.4-0.1,0.7s-0.1,0.6-0.2,0.9c-0.1,0.3-0.3,0.6-0.6,0.9
			c-0.2,0.3-0.6,0.6-1,0.9c-0.4,0.3-0.9,0.5-1.6,0.6c-0.6,0.2-1.4,0.2-2.2,0.2c-0.9,0-1.7-0.1-2.4-0.3c-0.7-0.2-1.4-0.5-1.9-0.9
			s-0.9-0.9-1.2-1.6c-0.3-0.6-0.4-1.4-0.4-2.3h1.4C106.9,26.6,107.1,27.2,107.3,27.7z"/>
		<path class="st0" d="M134.5,15.9v1.2h-8v5.3h7.1v1.2h-7.1v7h-1.4V15.9H134.5z"/>
		<path class="st0" d="M146.5,15.9v1.2h-8.8v5.3h8.3v1.2h-8.3v5.8h8.9v1.2h-10.3V15.9H146.5z"/>
		<path class="st0" d="M153.7,15.9c2.3,0.1,4,0.7,5.1,1.9c1.1,1.2,1.7,3,1.7,5.5s-0.6,4.3-1.7,5.5c-1.1,1.2-2.8,1.8-5.1,1.9h-5.1
			V15.9H153.7z M153,29.5c1.1,0,2-0.1,2.7-0.3c0.8-0.2,1.4-0.6,1.9-1.1c0.5-0.5,0.9-1.1,1.1-1.9c0.2-0.8,0.4-1.7,0.4-2.8
			s-0.1-2.1-0.4-2.8c-0.2-0.8-0.6-1.4-1.1-1.9c-0.5-0.5-1.1-0.9-1.9-1.1c-0.8-0.2-1.7-0.3-2.7-0.3h-3v12.4H153z"/>
		<path class="st0" d="M173,15.9v1.2h-8.8v5.3h8.3v1.2h-8.3v5.8h8.9v1.2h-10.3V15.9H173z"/>
		<path class="st0" d="M181.8,15.9c0.6,0,1.2,0.1,1.7,0.2c0.5,0.2,1,0.4,1.4,0.7c0.4,0.3,0.7,0.7,1,1.2c0.2,0.5,0.4,1.1,0.4,1.7
			c0,0.9-0.2,1.8-0.7,2.4c-0.5,0.7-1.2,1.1-2.2,1.3v0c0.5,0.1,0.9,0.2,1.2,0.4c0.3,0.2,0.6,0.4,0.8,0.7c0.2,0.3,0.3,0.6,0.4,1
			c0.1,0.4,0.1,0.8,0.2,1.2c0,0.2,0,0.6,0,0.9c0,0.4,0,0.7,0.1,1.1c0,0.4,0.1,0.7,0.2,1c0.1,0.3,0.2,0.6,0.4,0.8h-1.6
			c-0.1-0.1-0.1-0.3-0.2-0.5c0-0.2-0.1-0.4-0.1-0.6c0-0.2,0-0.4-0.1-0.6c0-0.2,0-0.4,0-0.5c0-0.5-0.1-1-0.1-1.6
			c-0.1-0.5-0.2-1-0.4-1.4c-0.2-0.4-0.5-0.7-0.9-1c-0.4-0.2-0.9-0.4-1.6-0.3h-5.3v6.6H175V15.9H181.8z M181.7,22.9
			c0.4,0,0.8-0.1,1.2-0.2c0.4-0.1,0.7-0.3,1-0.6c0.3-0.2,0.5-0.5,0.7-0.9c0.2-0.4,0.3-0.8,0.3-1.2c0-0.9-0.3-1.6-0.8-2.2
			c-0.5-0.5-1.3-0.8-2.4-0.8h-5.3v5.8H181.7z"/>
		<path class="st0" d="M194.8,15.9l5.8,14.8h-1.5l-1.8-4.6h-6.7l-1.8,4.6h-1.5l6-14.8H194.8z M196.8,24.9l-2.9-7.6l-3,7.6H196.8z"/>
		<path class="st0" d="M210.7,15.9v1.2h-5.2v13.6h-1.4V17.1H199v-1.2H210.7z"/>
		<path class="st0" d="M213.6,15.9v14.8h-1.4V15.9H213.6z"/>
		<path class="st0" d="M216.3,20.4c0.3-0.9,0.7-1.7,1.3-2.5s1.3-1.3,2.2-1.7c0.9-0.4,1.9-0.6,3.1-0.6s2.2,0.2,3,0.6
			c0.9,0.4,1.6,1,2.2,1.7s1,1.5,1.3,2.5c0.3,0.9,0.4,1.9,0.4,2.9c0,1-0.1,2-0.4,2.9c-0.3,0.9-0.7,1.7-1.3,2.4
			c-0.6,0.7-1.3,1.3-2.2,1.7s-1.9,0.6-3,0.6s-2.2-0.2-3.1-0.6c-0.9-0.4-1.6-1-2.2-1.7c-0.6-0.7-1-1.5-1.3-2.4
			c-0.3-0.9-0.4-1.9-0.4-2.9C215.9,22.3,216,21.3,216.3,20.4z M217.6,25.7c0.2,0.8,0.5,1.5,1,2.1c0.4,0.6,1,1.1,1.7,1.5
			s1.5,0.6,2.5,0.6c1,0,1.8-0.2,2.5-0.6s1.3-0.9,1.7-1.5c0.4-0.6,0.8-1.3,1-2.1c0.2-0.8,0.3-1.6,0.3-2.4c0-0.8-0.1-1.6-0.3-2.4
			c-0.2-0.8-0.5-1.5-1-2.1c-0.4-0.6-1-1.1-1.7-1.5c-0.7-0.4-1.5-0.6-2.5-0.6c-1,0-1.8,0.2-2.5,0.6c-0.7,0.4-1.3,0.9-1.7,1.5
			c-0.4,0.6-0.8,1.3-1,2.1c-0.2,0.8-0.3,1.6-0.3,2.4C217.3,24.1,217.4,24.9,217.6,25.7z"/>
		<path class="st0" d="M233.6,15.9l8.6,12.5h0V15.9h1.4v14.8h-1.6l-8.6-12.5h0v12.5H232V15.9H233.6z"/>
		<g>
			<path class="st0" d="M91.7,41.2c-0.3-0.4-0.6-0.8-1-1.2c-0.4-0.3-0.9-0.6-1.4-0.8c-0.5-0.2-1.1-0.3-1.6-0.3c-1,0-1.9,0.2-2.7,0.6
				c-0.7,0.4-1.3,0.9-1.8,1.6c-0.5,0.7-0.8,1.5-1,2.3c-0.2,0.9-0.3,1.8-0.3,2.7c0,0.9,0.1,1.8,0.3,2.6c0.2,0.8,0.5,1.6,1,2.3
				c0.5,0.7,1,1.2,1.8,1.6c0.7,0.4,1.6,0.6,2.7,0.6c1.4,0,2.5-0.4,3.3-1.3c0.8-0.9,1.3-2,1.5-3.4h4.5c-0.1,1.3-0.4,2.5-0.9,3.6
				s-1.1,2-2,2.7c-0.8,0.7-1.8,1.3-2.8,1.7c-1.1,0.4-2.3,0.6-3.6,0.6c-1.6,0-3.1-0.3-4.4-0.8S80.9,55,80,54s-1.6-2.1-2-3.5
				c-0.5-1.3-0.7-2.8-0.7-4.3c0-1.6,0.2-3,0.7-4.4s1.2-2.5,2-3.5c0.9-1,2-1.8,3.3-2.4c1.3-0.6,2.7-0.9,4.4-0.9
				c1.2,0,2.3,0.2,3.3,0.5c1,0.3,2,0.8,2.8,1.5c0.8,0.6,1.5,1.4,2,2.4c0.5,0.9,0.9,2,1,3.3h-4.5C92.1,42.2,92,41.7,91.7,41.2z"/>
			<path class="st0" d="M104.7,35.6v21.1h-4.6V35.6H104.7z"/>
			<path class="st0" d="M113.4,56.7l-6.8-21.1h4.8l4.7,14.9h0.1l4.8-14.9h4.8l-7,21.1H113.4z"/>
			<path class="st0" d="M132.1,35.6v21.1h-4.6V35.6H132.1z"/>
			<path class="st0" d="M149.7,41.2c-0.3-0.4-0.6-0.8-1-1.2c-0.4-0.3-0.9-0.6-1.4-0.8c-0.5-0.2-1.1-0.3-1.6-0.3
				c-1,0-1.9,0.2-2.7,0.6c-0.7,0.4-1.3,0.9-1.8,1.6c-0.5,0.7-0.8,1.5-1,2.3c-0.2,0.9-0.3,1.8-0.3,2.7c0,0.9,0.1,1.8,0.3,2.6
				c0.2,0.8,0.5,1.6,1,2.3c0.5,0.7,1,1.2,1.8,1.6c0.7,0.4,1.6,0.6,2.7,0.6c1.4,0,2.5-0.4,3.3-1.3c0.8-0.9,1.3-2,1.5-3.4h4.5
				c-0.1,1.3-0.4,2.5-0.9,3.6c-0.5,1.1-1.1,2-2,2.7c-0.8,0.7-1.8,1.3-2.8,1.7c-1.1,0.4-2.3,0.6-3.6,0.6c-1.6,0-3.1-0.3-4.4-0.8
				c-1.3-0.6-2.4-1.3-3.3-2.3c-0.9-1-1.6-2.1-2-3.5c-0.5-1.3-0.7-2.8-0.7-4.3c0-1.6,0.2-3,0.7-4.4c0.5-1.4,1.2-2.5,2-3.5
				c0.9-1,2-1.8,3.3-2.4c1.3-0.6,2.7-0.9,4.4-0.9c1.2,0,2.3,0.2,3.3,0.5c1,0.3,2,0.8,2.8,1.5c0.8,0.6,1.5,1.4,2,2.4
				c0.5,0.9,0.9,2,1,3.3h-4.5C150.2,42.2,150,41.7,149.7,41.2z"/>
			<path class="st0" d="M181.2,35.6v3.9H171v4.9h8.8V48H171v8.7h-4.6V35.6H181.2z"/>
			<path class="st0" d="M199.4,55.1c-1.6,1.4-3.8,2.1-6.6,2.1c-2.9,0-5.1-0.7-6.6-2.1c-1.6-1.4-2.4-3.5-2.4-6.4V35.6h4.6v13.1
				c0,0.6,0,1.1,0.1,1.7s0.3,1,0.6,1.5c0.3,0.4,0.8,0.8,1.3,1c0.6,0.3,1.3,0.4,2.3,0.4c1.7,0,2.8-0.4,3.4-1.1
				c0.6-0.7,0.9-1.9,0.9-3.5V35.6h4.6v13.1C201.8,51.6,201,53.7,199.4,55.1z"/>
			<path class="st0" d="M210.4,35.6l8.8,14.2h0.1V35.6h4.3v21.1H219l-8.8-14.1h-0.1v14.1h-4.4V35.6H210.4z"/>
			<path class="st0" d="M236.8,35.6c1.4,0,2.6,0.2,3.8,0.7c1.2,0.4,2.2,1.1,3,2c0.9,0.9,1.5,2,2,3.3c0.5,1.3,0.7,2.8,0.7,4.6
				c0,1.5-0.2,3-0.6,4.3c-0.4,1.3-1,2.4-1.8,3.4c-0.8,0.9-1.8,1.7-3,2.2c-1.2,0.5-2.6,0.8-4.2,0.8h-9.1V35.6H236.8z M236.5,52.8
				c0.7,0,1.3-0.1,2-0.3c0.6-0.2,1.2-0.6,1.7-1.1c0.5-0.5,0.9-1.2,1.2-2c0.3-0.8,0.4-1.8,0.4-3c0-1.1-0.1-2-0.3-2.9
				c-0.2-0.9-0.5-1.6-1-2.2c-0.5-0.6-1.1-1.1-1.9-1.4c-0.8-0.3-1.7-0.5-2.9-0.5h-3.3v13.3H236.5z"/>
		</g>
	</g>
</g>
</svg>
